<svg xmlns="http://www.w3.org/2000/svg" viewBox="0 0 800 600">
<rect width="800" height="600" fill="#F6EEFE"/>
<rect y="480" width="800" height="120" fill="#E7CFFD"/>
<g transform="rotate(-3 400 320)">
<rect x="150" y="140" width="500" height="340" rx="10" fill="#FFFFFF" stroke="#DBDDE3" stroke-width="4"/>
<rect x="398" y="140" width="4" height="340" fill="#DBDDE3"/>
<rect x="180" y="176" width="130" height="44" rx="8" fill="#A855F7"/>
<rect x="180" y="248" width="180" height="12" rx="6" fill="#DBDDE3"/>
<rect x="180" y="276" width="180" height="12" rx="6" fill="#DBDDE3"/>
<rect x="180" y="304" width="140" height="12" rx="6" fill="#DBDDE3"/>
<rect x="180" y="344" width="180" height="106" rx="8" fill="#E7CFFD"/>
<rect x="440" y="176" width="180" height="150" rx="8" fill="#A855F7"/>
<rect x="440" y="352" width="180" height="12" rx="6" fill="#DBDDE3"/>
<rect x="440" y="380" width="180" height="12" rx="6" fill="#DBDDE3"/>
<rect x="440" y="408" width="120" height="12" rx="6" fill="#DBDDE3"/>
</g>
<rect x="700" y="440" width="26" height="34" rx="8" fill="#FFFFFF" stroke="#DBDDE3" stroke-width="4"/>
<rect x="600" y="440" width="100" height="34" fill="#A855F7"/>
<polygon points="600,440 556,457 600,474" fill="#E7CFFD"/>
<polygon points="566,453 556,457 566,461" fill="#0A1829"/>
<circle cx="140" cy="120" r="18" fill="#7E40B9"/>
</svg>
