<svg xmlns="http://www.w3.org/2000/svg" viewBox="0 0 800 600">
<rect width="800" height="600" fill="#F6EEFE"/>
<rect y="480" width="800" height="120" fill="#E7CFFD"/>
<g transform="rotate(-6 265 335)">
<rect x="120" y="170" width="290" height="330" rx="10" fill="#FFFFFF" stroke="#DBDDE3" stroke-width="4"/>
<rect x="120" y="170" width="18" height="330" fill="#7E40B9"/>
<rect x="162" y="216" width="180" height="14" rx="7" fill="#A855F7"/>
<rect x="162" y="256" width="210" height="10" rx="5" fill="#DBDDE3"/>
<rect x="162" y="282" width="186" height="10" rx="5" fill="#DBDDE3"/>
<rect x="162" y="308" width="210" height="10" rx="5" fill="#DBDDE3"/>
<rect x="162" y="334" width="150" height="10" rx="5" fill="#DBDDE3"/>
<rect x="162" y="378" width="96" height="96" rx="8" fill="#E7CFFD"/>
<rect x="276" y="382" width="96" height="10" rx="5" fill="#DBDDE3"/>
<rect x="276" y="408" width="96" height="10" rx="5" fill="#DBDDE3"/>
<rect x="276" y="434" width="70" height="10" rx="5" fill="#DBDDE3"/>
<rect x="162" y="462" width="210" height="10" rx="5" fill="#DBDDE3"/>
</g>
<rect x="500" y="110" width="120" height="190" rx="60" fill="#A855F7"/>
<rect x="544" y="140" width="16" height="130" rx="8" fill="#E7CFFD"/>
<path d="M470 250a90 90 0 0 0 180 0" fill="none" stroke="#0A1829" stroke-width="16" stroke-linecap="round"/>
<rect x="548" y="340" width="24" height="130" fill="#0A1829"/>
<rect x="490" y="470" width="140" height="22" rx="11" fill="#0A1829"/>
<circle cx="150" cy="110" r="16" fill="#A855F7"/>
</svg>
