<svg xmlns="http://www.w3.org/2000/svg" viewBox="0 0 800 600">
  <rect width="800" height="600" fill="#FBE9F1"/>
  <rect x="140" y="60" width="520" height="480" rx="24" fill="#FFFFFF" stroke="#111827" stroke-width="6"/>
  <rect x="140" y="60" width="520" height="134" rx="24" fill="#db2777"/>
  <rect x="140" y="120" width="520" height="74" fill="#db2777"/>
  <rect x="185" y="238" width="94" height="76" rx="12" fill="#FBE9F1"/>
  <rect x="303" y="238" width="94" height="76" rx="12" fill="#FBE9F1"/>
  <rect x="421" y="238" width="94" height="76" rx="12" fill="#FBE9F1"/>
  <rect x="539" y="238" width="94" height="76" rx="12" fill="#FBE9F1"/>
  <rect x="185" y="336" width="94" height="76" rx="12" fill="#FBE9F1"/>
  <rect x="303" y="336" width="94" height="76" rx="12" fill="#FBE9F1"/>
  <rect x="421" y="336" width="94" height="76" rx="12" fill="#FBE9F1"/>
  <rect x="539" y="336" width="94" height="76" rx="12" fill="#FBE9F1"/>
  <circle cx="232" cy="276" r="20" fill="#D97706"/>
  <circle cx="586" cy="276" r="20" fill="#2563eb"/>
  <ellipse cx="468" cy="374" rx="28" ry="15" fill="#16A34A" transform="rotate(-24 468 374)"/>
  <circle cx="350" cy="374" r="20" fill="#db2777"/>
  <rect x="185" y="452" width="210" height="30" rx="15" fill="#D97706"/>
  <rect x="419" y="452" width="130" height="30" rx="15" fill="#16A34A"/>
</svg>
