<svg xmlns="http://www.w3.org/2000/svg" viewBox="0 0 800 600">
  <rect width="800" height="600" fill="#FFFFFF"/>
  <rect x="150" y="70" width="500" height="460" rx="18" fill="#3B82F6"/>
  <rect x="182" y="102" width="436" height="396" rx="10" fill="#FFFFFF"/>
  <rect x="210" y="150" width="120" height="86" rx="8" fill="#16A34A"/>
  <rect x="480" y="130" width="110" height="106" rx="8" fill="#D97706"/>
  <rect x="212" y="360" width="104" height="110" rx="8" fill="#8B5CF6"/>
  <rect x="366" y="390" width="128" height="80" rx="8" fill="#DC2626"/>
  <rect x="500" y="330" width="92" height="140" rx="8" fill="#16A34A"/>
  <path d="M250 470 C250 400 330 390 330 330 C330 270 420 260 420 200 C420 160 470 150 520 150" fill="none" stroke="#DC2626" stroke-width="10" stroke-linecap="round" stroke-dasharray="0.1 30"/>
  <circle cx="250" cy="470" r="18" fill="#3B82F6"/>
  <path d="M548 92 c-26 0 -46 20 -46 45 c0 32 46 74 46 74 c0 0 46 -42 46 -74 c0 -25 -20 -45 -46 -45 Z" fill="#8B5CF6"/>
  <circle cx="548" cy="137" r="18" fill="#FFFFFF"/>
  <path d="M548 250 c-20 0 -35 15 -35 34 c0 24 35 56 35 56 c0 0 35 -32 35 -56 c0 -19 -15 -34 -35 -34 Z" fill="#D97706"/>
  <circle cx="548" cy="284" r="13" fill="#FFFFFF"/>
</svg>
