<svg xmlns="http://www.w3.org/2000/svg" viewBox="0 0 800 600">
  <rect width="800" height="600" fill="#B8E6C8"/>
  <rect x="90" y="150" width="230" height="310" rx="14" fill="#F7F6F5" stroke="#D6D3D1" stroke-width="4"/>
  <polyline points="150,260 200,310 150,360" fill="none" stroke="#00A63D" stroke-width="18" stroke-linecap="round" stroke-linejoin="round"/>
  <polyline points="260,260 210,310 260,360" fill="none" stroke="#00A63D" stroke-width="18" stroke-linecap="round" stroke-linejoin="round"/>
  <rect x="285" y="120" width="240" height="340" rx="14" fill="#101613" stroke="#00A63D" stroke-width="6"/>
  <polyline points="340,240 390,290 340,340" fill="none" stroke="#66C88B" stroke-width="18" stroke-linecap="round" stroke-linejoin="round"/>
  <rect x="420" y="276" width="70" height="28" rx="4" fill="#66C88B"/>
  <rect x="340" y="390" width="130" height="18" rx="9" fill="#3A443E"/>
  <rect x="480" y="160" width="230" height="310" rx="14" fill="#F7F6F5" stroke="#D6D3D1" stroke-width="4"/>
  <rect x="516" y="200" width="158" height="22" rx="11" fill="#423E3B"/>
  <rect x="516" y="246" width="110" height="22" rx="11" fill="#D6D3D1"/>
  <rect x="516" y="292" width="134" height="22" rx="11" fill="#D6D3D1"/>
  <rect x="516" y="356" width="60" height="32" rx="4" fill="#00A63D"/>
</svg>
